              <svg xmlns="http://www.w3.org/2000/svg" width="25" height="25" viewBox="0 0 25 25" fill="none">
                  <path d="M22.9144 6.74861C20.7802 3.1432 16.8207 0.714233 12.2951 0.714233C7.76947 0.714233 3.80944 3.1432 1.67521 6.74935C1.64745 6.78863 1.62394 6.83112 1.60192 6.87509C0.584587 8.64247 0 10.6831 0 12.8571C0 19.5523 5.51543 25 12.2951 25C19.0747 25 24.5902 19.5523 24.5902 12.8571C24.5902 10.6831 24.0056 8.64247 22.9887 6.87583C22.9662 6.83112 22.9427 6.78863 22.9144 6.74861ZM2.04918 12.8571C2.04918 11.3276 2.40463 9.88166 3.02249 8.58021L3.71814 8.82973C5.06617 9.31295 6.45697 9.67611 7.86378 9.92563C7.61939 11.9359 7.63064 13.9626 7.88929 15.9778C6.71562 15.7522 5.5527 15.4365 4.41854 15.0281L2.15224 14.2121C2.0912 13.7677 2.04918 13.3176 2.04918 12.8571ZM9.99801 16.2728C9.68858 14.2514 9.65106 12.214 9.89445 10.1927C10.6932 10.268 11.4934 10.3192 12.2946 10.3192C13.0963 10.3192 13.8965 10.2675 14.6952 10.1927C14.9386 12.2125 14.9016 14.2504 14.5917 16.2723C13.064 16.4205 11.5261 16.4205 9.99801 16.2728ZM16.7264 9.92563C18.1332 9.67611 19.5235 9.31295 20.872 8.82973L21.5672 8.58021C22.1855 9.88166 22.541 11.3276 22.541 12.8571C22.541 13.3176 22.499 13.7677 22.4379 14.2121L20.1716 15.0281C19.0375 15.4365 17.8745 15.7522 16.7009 15.9778C16.9595 13.9616 16.9708 11.9346 16.7264 9.92563ZM20.4928 6.81308L20.1731 6.92771C18.9457 7.36795 17.6799 7.69998 16.4007 7.9285C16.1568 6.7365 15.8216 5.54919 15.3939 4.38486L14.9143 3.08564C17.1756 3.67756 19.128 5.01236 20.4928 6.81308ZM12.6108 2.75361L13.4683 5.07659C13.8442 6.10011 14.1449 7.14388 14.3663 8.1926C12.9877 8.31464 11.6019 8.31464 10.2234 8.1926C10.4448 7.14487 10.7454 6.10109 11.1214 5.07807L11.9794 2.75361C12.0855 2.75064 12.1885 2.73804 12.2951 2.73804C12.4016 2.73804 12.5047 2.75064 12.6108 2.75361ZM9.67582 3.08564L9.1958 4.38585C8.76805 5.54919 8.43286 6.73749 8.18947 7.92801C6.90973 7.69949 5.6445 7.36746 4.41704 6.92722L4.09736 6.81259C5.46215 5.01236 7.41452 3.67756 9.67582 3.08564ZM2.78185 16.5924L3.71664 16.9289C5.19474 17.4608 6.71762 17.8447 8.254 18.0918C8.49439 19.1906 8.80732 20.2774 9.1963 21.3293L9.67582 22.6285C6.52876 21.8044 3.97329 19.5422 2.78185 16.5924ZM11.9799 22.9606L11.1214 20.6356C10.8452 19.8883 10.6131 19.1212 10.418 18.3457C11.0431 18.3912 11.6685 18.4201 12.2951 18.4201C12.9217 18.4201 13.5476 18.3912 14.1727 18.3457C13.9776 19.1212 13.7449 19.8883 13.4688 20.6356L12.6103 22.9606C12.5047 22.9635 12.4016 22.9761 12.2951 22.9761C12.1885 22.9761 12.0855 22.9635 11.9799 22.9606ZM14.9138 22.6285L15.3934 21.3293C15.7823 20.2774 16.0953 19.1911 16.3357 18.0918C17.8713 17.8452 19.3949 17.4613 20.873 16.9294L21.8078 16.5929C20.6169 19.5422 18.0614 21.8044 14.9138 22.6285Z" fill="#FFF831"/>
                </svg>