<svg xmlns="http://www.w3.org/2000/svg" width="16" height="20" viewBox="0 0 16 20" fill="none">
    <path fill-rule="evenodd" clip-rule="evenodd" d="M0.596664 16.8291C0.267154 17.0003 0.272912 17.4491 0.576229 17.6633C2.65347 19.1306 5.23101 20 8.02293 20C10.7738 20 13.3156 19.1577 15.3759 17.7312C15.7024 17.5052 15.7048 17.0249 15.3457 16.8552L11.3642 14.9739C10.8499 14.7305 10.5236 14.2338 10.5236 13.6887V12.8073C10.5236 12.4258 10.673 12.0614 10.9004 11.7552C11.1299 11.4494 11.3355 11.1306 11.5178 10.8015C11.9844 9.95893 13.0267 9.23739 13.0267 8.27425V6.69797C13.0267 6.06317 12.6087 5.45768 12.6087 4.82288V3.84289C12.6087 3.64406 12.6246 3.44641 12.6216 3.24761C12.6087 2.39526 12.2007 0 8.02293 0C3.8471 0 3.43952 2.39585 3.42661 3.24792C3.4236 3.44652 3.43949 3.64396 3.43949 3.84258V4.82288C3.43949 5.45768 3.02153 6.06317 3.02153 6.69797V8.27425C3.02153 9.04194 3.6765 9.69534 3.98698 10.3974C4.08692 10.6234 4.19307 10.8333 4.29865 11.024C4.74825 11.8362 5.10662 12.726 5.10662 13.6543C5.10662 14.1771 4.80153 14.6611 4.31479 14.9128L0.596664 16.8291Z" fill="currentColor" />
  </svg>