<svg width="24" height="14" viewBox="0 0 24 14" fill="none" xmlns="http://www.w3.org/2000/svg">
<path d="M11.986 14H17.7376V11.1334C17.7376 10.4472 17.3754 9.80018 16.7924 9.44505C15.3501 8.56533 13.678 8.08728 11.986 8.01089V14Z" fill="white"/>
<path d="M11.986 6.99982C12.9289 7.00891 13.8748 6.66726 14.5942 5.97486C16.0145 4.60802 16.0145 2.39197 14.5942 1.02512C13.8748 0.332747 12.9289 -0.00890609 11.986 0.000176397V6.99982Z" fill="white"/>
<path d="M19.8158 11.1779V14H23.9722V11.6112C23.9722 11.0393 23.6703 10.5002 23.1845 10.2042C21.838 9.38293 20.2512 8.98173 18.6699 9.00064C19.3799 9.48664 19.8158 10.3087 19.8158 11.1779Z" fill="white"/>
<path d="M16.5725 7.12131C16.5273 7.07783 16.4838 7.03334 16.442 6.98792C17.6037 5.62789 17.9842 3.85688 17.5834 2.22766C18.7134 1.77771 20.0624 1.99473 20.981 2.87868C22.1983 4.05026 22.1983 5.94973 20.981 7.12131C19.7636 8.2929 17.7899 8.2929 16.5725 7.12131Z" fill="white"/>
<path d="M11.986 14H6.23457V11.1334C6.23457 10.4472 6.59684 9.80018 7.17978 9.44505C8.62208 8.56533 10.294 8.08728 11.986 8.01089V14Z" fill="white"/>
<path d="M11.986 6.99982C11.0431 7.00891 10.0974 6.66726 9.37796 5.97486C7.95769 4.60802 7.95769 2.39197 9.37796 1.02512C10.0974 0.332747 11.0431 -0.00890609 11.986 0.000176397V6.99982Z" fill="white"/>
<path d="M4.15636 11.1779V14H0V11.6112C0 11.0393 0.301893 10.5002 0.787677 10.2042C2.13417 9.38293 3.72105 8.98173 5.30229 9.00064C4.5923 9.48664 4.15636 10.3087 4.15636 11.1779Z" fill="white"/>
<path d="M7.39972 7.12131C7.44491 7.07783 7.48841 7.03334 7.53025 6.98792C6.36847 5.62789 5.98798 3.85688 6.38878 2.22766C5.25885 1.77771 3.90977 1.99473 2.99124 2.87868C1.77386 4.05026 1.77386 5.94973 2.99124 7.12131C4.20862 8.2929 6.18234 8.2929 7.39972 7.12131Z" fill="white"/>
</svg>
