<svg width="92" height="18" viewBox="0 0 92 18" fill="none" xmlns="http://www.w3.org/2000/svg">
<path d="M38.326 14.112C40.916 14.112 42.12 12.824 42.12 11.326C42.12 7.728 36.184 9.226 36.184 6.832C36.184 5.978 36.898 5.278 38.564 5.278C39.432 5.278 40.398 5.53 41.252 6.076L41.714 4.956C40.902 4.396 39.712 4.088 38.564 4.088C35.988 4.088 34.812 5.376 34.812 6.888C34.812 10.528 40.748 9.016 40.748 11.41C40.748 12.264 40.02 12.922 38.326 12.922C37.066 12.922 35.82 12.446 35.092 11.788L34.574 12.88C35.358 13.608 36.828 14.112 38.326 14.112ZM47.7213 12.6C47.4413 12.824 47.0633 12.95 46.6713 12.95C45.9293 12.95 45.5093 12.502 45.5093 11.704V7.686H47.6373V6.58H45.5093V4.956H44.1653V6.58H42.9053V7.686H44.1653V11.76C44.1653 13.258 45.0193 14.084 46.5173 14.084C47.1193 14.084 47.7353 13.916 48.1413 13.566L47.7213 12.6ZM52.4682 6.51C51.2782 6.51 50.1722 6.846 49.4022 7.462L49.9622 8.47C50.5362 7.98 51.4322 7.672 52.3142 7.672C53.6442 7.672 54.3022 8.33 54.3022 9.464V9.73H52.1742C49.9622 9.73 49.1922 10.71 49.1922 11.9C49.1922 13.188 50.2562 14.084 51.9362 14.084C53.0982 14.084 53.9242 13.692 54.3722 13.02V14H55.6462V9.52C55.6462 7.49 54.4982 6.51 52.4682 6.51ZM52.1602 13.048C51.1382 13.048 50.5222 12.586 50.5222 11.844C50.5222 11.214 50.9002 10.696 52.2302 10.696H54.3022V11.732C53.9662 12.586 53.1682 13.048 52.1602 13.048ZM61.8854 12.6C61.6054 12.824 61.2274 12.95 60.8354 12.95C60.0934 12.95 59.6734 12.502 59.6734 11.704V7.686H61.8014V6.58H59.6734V4.956H58.3294V6.58H57.0694V7.686H58.3294V11.76C58.3294 13.258 59.1834 14.084 60.6814 14.084C61.2834 14.084 61.8994 13.916 62.3054 13.566L61.8854 12.6ZM64.6023 5.152C65.1343 5.152 65.5123 4.76 65.5123 4.256C65.5123 3.78 65.1203 3.402 64.6023 3.402C64.0843 3.402 63.6923 3.794 63.6923 4.284C63.6923 4.774 64.0843 5.152 64.6023 5.152ZM63.9303 14H65.2743V6.58H63.9303V14ZM69.9684 14.084C71.9424 14.084 73.1744 13.23 73.1744 11.886C73.1744 9.002 68.4704 10.43 68.4704 8.68C68.4704 8.092 69.0444 7.658 70.2204 7.658C70.9484 7.658 71.6904 7.812 72.3624 8.246L72.9364 7.182C72.2924 6.762 71.2004 6.51 70.2344 6.51C68.3304 6.51 67.1404 7.406 67.1404 8.736C67.1404 11.69 71.8304 10.248 71.8304 11.914C71.8304 12.544 71.3124 12.922 70.0664 12.922C69.1004 12.922 68.0924 12.6 67.4624 12.152L66.9024 13.216C67.5184 13.706 68.7364 14.084 69.9684 14.084ZM78.6061 12.6C78.3261 12.824 77.9481 12.95 77.5561 12.95C76.8141 12.95 76.3941 12.502 76.3941 11.704V7.686H78.5221V6.58H76.3941V4.956H75.0501V6.58H73.7901V7.686H75.0501V11.76C75.0501 13.258 75.9041 14.084 77.4021 14.084C78.0041 14.084 78.6201 13.916 79.0261 13.566L78.6061 12.6ZM81.323 5.152C81.855 5.152 82.233 4.76 82.233 4.256C82.233 3.78 81.841 3.402 81.323 3.402C80.805 3.402 80.413 3.794 80.413 4.284C80.413 4.774 80.805 5.152 81.323 5.152ZM80.651 14H81.995V6.58H80.651V14ZM87.7951 14.084C89.1251 14.084 90.2311 13.524 90.8191 12.488L89.7971 11.844C89.3211 12.572 88.5931 12.908 87.7811 12.908C86.3251 12.908 85.2331 11.9 85.2331 10.29C85.2331 8.708 86.3251 7.686 87.7811 7.686C88.5931 7.686 89.3211 8.022 89.7971 8.75L90.8191 8.092C90.2311 7.056 89.1251 6.51 87.7951 6.51C85.5131 6.51 83.8751 8.078 83.8751 10.29C83.8751 12.502 85.5131 14.084 87.7951 14.084Z" fill="#85898F"/>
<path d="M0.75153 18C0.468697 17.9106 0.228942 17.768 0.0922918 17.4887C-0.177124 16.9379 0.17068 16.2832 0.780485 16.2008C0.87335 16.1881 0.967628 16.1818 1.0612 16.1818C6.35418 16.1811 11.6472 16.1814 16.9401 16.1797C17.2851 16.1797 17.5909 16.2554 17.8137 16.5424C18.183 17.0182 17.9804 17.7261 17.4129 17.937C17.3582 17.9574 17.3042 17.9789 17.2502 17.9997C11.7506 18 6.25107 18 0.75153 18Z" fill="#85898F"/>
<path d="M13.6825 8.78453C13.6825 6.9043 13.6825 5.02408 13.6825 3.14385C13.6825 2.72477 13.7934 2.61454 14.2154 2.61454C14.8262 2.61419 15.4371 2.61384 16.0479 2.61454C16.4406 2.61489 16.5624 2.73674 16.5624 3.13047C16.5628 6.90853 16.5628 10.6866 16.5624 14.4647C16.5624 14.857 16.4413 14.9749 16.0441 14.9749C15.4155 14.9753 14.787 14.9756 14.1585 14.9746C13.81 14.9739 13.6825 14.8464 13.6825 14.4956C13.6822 12.5918 13.6825 10.6884 13.6825 8.78453Z" fill="#85898F"/>
<path d="M9.59933 10.4242C9.59933 9.07085 9.59933 7.71747 9.59933 6.36408C9.59933 5.97599 9.71444 5.86013 10.1021 5.85943C10.7367 5.85872 11.3712 5.85802 12.0057 5.85978C12.3528 5.86048 12.4845 5.99184 12.4845 6.33802C12.4852 9.05641 12.4852 11.7748 12.4845 14.4932C12.4845 14.8369 12.3475 14.9735 12.0057 14.9742C11.3595 14.9753 10.7134 14.9757 10.0668 14.9742C9.73316 14.9735 9.59968 14.8383 9.59968 14.5016C9.59898 13.1426 9.59933 11.7836 9.59933 10.4242Z" fill="#85898F"/>
<path d="M10.2349 1.21008C9.87364 0.891016 9.53184 0.589208 9.18968 0.287048C9.15472 0.256057 9.11482 0.228235 9.08657 0.19161C9.01772 0.102159 9.05162 0.0225692 9.16532 0.00319995C9.19957 -0.00243474 9.23558 0.00108694 9.27089 0.00108694C10.7391 0.00249561 12.2073 0.00425645 13.6755 0.00601729C13.7224 0.00601729 13.7719 0.00073477 13.8157 0.0134128C13.9106 0.040882 13.9534 0.102864 13.9011 0.19971C13.8792 0.240561 13.8485 0.276835 13.8199 0.314165C12.9375 1.46153 12.0547 2.60889 11.1723 3.75626C11.1508 3.78408 11.1342 3.81824 11.107 3.83831C11.0625 3.87071 10.9933 3.92776 10.9672 3.91368C10.922 3.88973 10.8789 3.8207 10.8743 3.76753C10.8433 3.40585 10.8228 3.04347 10.7981 2.68144C10.7903 2.56522 10.7797 2.44936 10.7687 2.31518C10.7123 2.33526 10.6695 2.34618 10.631 2.36519C9.58904 2.87584 8.54668 3.38578 7.50751 3.90241C7.43018 3.94079 7.35885 4.01545 7.31365 4.09047C6.74375 5.03921 6.1795 5.99112 5.61347 6.94162C5.36419 7.36035 5.10925 7.44416 4.65622 7.25822C3.35469 6.72363 2.05351 6.18974 0.753041 5.65409C0.432778 5.52238 0.267527 5.27445 0.306368 4.99695C0.365336 4.57575 0.761868 4.35459 1.17853 4.52117C1.74984 4.75008 2.31728 4.98779 2.88648 5.22163C3.50405 5.47554 4.12198 5.7291 4.75721 5.99006C4.79569 5.9309 4.83489 5.87525 4.86949 5.81715C5.36983 4.97722 5.87194 4.13801 6.3684 3.29562C6.47681 3.11179 6.62017 2.98043 6.8119 2.88711C7.94429 2.33596 9.07457 1.77954 10.2349 1.21008Z" fill="#85898F"/>
<path d="M4.32042 11.9008C4.32042 12.7619 4.32078 13.6226 4.32007 14.4836C4.31972 14.8555 4.19825 14.9745 3.82114 14.9749C3.19262 14.9752 2.56445 14.9752 1.93593 14.9749C1.57153 14.9745 1.44194 14.8513 1.44159 14.4952C1.44053 12.7559 1.44053 11.0165 1.44159 9.27716C1.44194 8.92042 1.57188 8.79434 1.93311 8.79364C2.56728 8.79293 3.2018 8.79258 3.83597 8.79364C4.19366 8.79434 4.31972 8.92147 4.32007 9.2828C4.32078 10.1558 4.32042 11.0281 4.32042 11.9008Z" fill="#85898F"/>
<path d="M8.40165 12.7066C8.40165 13.3095 8.40271 13.9124 8.4013 14.5157C8.40059 14.8379 8.26394 14.9739 7.93874 14.9746C7.28727 14.976 6.63544 14.976 5.98397 14.9746C5.66088 14.9739 5.51753 14.8362 5.51717 14.5178C5.51505 13.3 5.51505 12.0826 5.51753 10.8648C5.51823 10.5577 5.66336 10.4151 5.97338 10.4137C6.63085 10.4105 7.28833 10.4108 7.9458 10.4137C8.26465 10.4151 8.40095 10.5577 8.40165 10.8803C8.40271 11.4888 8.40165 12.0977 8.40165 12.7066Z" fill="#85898F"/>
</svg>
