<svg width="20" height="18" viewBox="0 0 20 18" fill="none" xmlns="http://www.w3.org/2000/svg">
<path d="M7.97216 13.0001V5.00002C7.97216 3.89504 8.86714 3 9.97217 3H18.9722V2.00002C18.9722 0.895033 18.0772 0 16.9722 0H2.97219C1.86715 4.68751e-05 0.972168 0.895033 0.972168 2.00002V16.0001C0.972168 17.105 1.86715 18.0001 2.97219 18.0001H16.9722C18.0772 18.0001 18.9722 17.105 18.9722 16.0001V15.0001H9.97217C8.86719 15.0001 7.97216 14.105 7.97216 13.0001Z" fill="white"/>
<path d="M9.97217 5V13H19.9722V5H9.97217ZM13.9722 10.5C13.1421 10.5 12.4722 9.83005 12.4722 9.00004C12.4722 8.17002 13.1421 7.50004 13.9722 7.50004C14.8022 7.50004 15.4722 8.17002 15.4722 9.00004C15.4722 9.83005 14.8022 10.5 13.9722 10.5Z" fill="white"/>
</svg>
