<svg width="17" height="22" viewBox="0 0 17 22" fill="none" xmlns="http://www.w3.org/2000/svg">
<path d="M16.697 13.7583C16.5205 13.5929 16.2812 13.5 16.0319 13.5C16.0295 13.5 16.0272 13.5 16.025 13.5C15.8885 13.501 12.659 13.5456 10.5734 15.5008C8.48779 17.456 8.44024 20.4837 8.43923 20.6117C8.43741 20.8479 8.53672 21.0748 8.7148 21.2418C8.89125 21.4073 9.13063 21.5001 9.37994 21.5001C9.3822 21.5001 9.38453 21.5001 9.38685 21.5001C9.52335 21.4991 12.7529 21.4546 14.8385 19.4994C16.924 17.5441 16.9716 14.5164 16.9726 14.3885C16.9744 14.1523 16.8752 13.9254 16.697 13.7583Z" fill="white"/>
<path d="M1.24781 13.7583C1.42432 13.5929 1.66364 13.5 1.91295 13.5C1.91528 13.5 1.9176 13.5 1.91986 13.5C2.05636 13.501 5.28584 13.5456 7.37147 15.5008C9.45703 17.456 9.50459 20.4837 9.50559 20.6117C9.50741 20.8479 9.4081 21.0748 9.23002 21.2418C9.05358 21.4073 8.81419 21.5001 8.56488 21.5001C8.56262 21.5001 8.5603 21.5001 8.55797 21.5001C8.42148 21.4991 5.19193 21.4546 3.10636 19.4994C1.0208 17.5441 0.973247 14.5164 0.972241 14.3885C0.97042 14.1523 1.06967 13.9254 1.24781 13.7583Z" fill="white"/>
<circle cx="8.97241" cy="7" r="6" stroke="white" strokeWidth="2"/>
<circle cx="8.97241" cy="7" r="3" fill="white"/>
</svg>
