<svg width="19" height="16" viewBox="0 0 19 16" fill="none" xmlns="http://www.w3.org/2000/svg">
<path d="M15.6872 3.17163H1.90503C1.47093 3.17163 1.07212 3.46424 0.989558 3.89025C0.878278 4.46316 1.31624 4.96668 1.86973 4.96668H15.6872C15.7697 4.96668 15.8368 4.89969 15.8368 4.81709V3.3212C15.8368 3.23867 15.7697 3.17163 15.6872 3.17163Z" fill="white"/>
<path d="M18.8168 3.8407L14.9275 0.549758C14.8387 0.47466 14.7142 0.457621 14.6083 0.50667C14.5027 0.556034 14.4351 0.661633 14.4351 0.778312V7.36017C14.4351 7.47684 14.5027 7.58244 14.6083 7.63153C14.6487 7.65039 14.6915 7.65936 14.7343 7.65936C14.8037 7.65936 14.8725 7.63514 14.9275 7.58875L18.8168 4.29781C18.8841 4.24066 18.9227 4.15719 18.9227 4.06926C18.9227 3.98133 18.8841 3.89785 18.8168 3.8407Z" fill="white"/>
<path d="M4.20772 10.9244H17.9899C18.424 10.9244 18.8228 11.217 18.9053 11.643C19.0166 12.2159 18.5787 12.7194 18.0252 12.7194H4.20772C4.12515 12.7194 4.05812 12.6524 4.05812 12.5698V11.0739C4.05812 10.9914 4.12515 10.9244 4.20772 10.9244Z" fill="white"/>
<path d="M1.07812 11.5934L4.96739 8.3025C5.05623 8.22741 5.18069 8.21037 5.28661 8.25942C5.39221 8.30878 5.45984 8.41438 5.45984 8.53106V15.1129C5.45984 15.2296 5.39221 15.3352 5.28661 15.3843C5.24622 15.4031 5.20345 15.4121 5.16064 15.4121C5.09122 15.4121 5.02243 15.3879 4.96736 15.3415L1.07808 12.0506C1.01077 11.9934 0.972168 11.9099 0.972168 11.822C0.972168 11.7341 1.0108 11.6506 1.07812 11.5934Z" fill="white"/>
</svg>
