<svg width="21" height="20" viewBox="0 0 21 20" fill="none" xmlns="http://www.w3.org/2000/svg">
<g clip-path="url(#clip0_101_849)">
<path d="M20.5097 12.63L18.3997 10.975C18.4397 10.655 18.4697 10.33 18.4697 9.99998C18.4697 9.66998 18.4397 9.34499 18.3997 9.02498L20.5147 7.36996C20.7047 7.21996 20.7597 6.94996 20.6347 6.72998L18.6347 3.26498C18.5097 3.04997 18.2497 2.95997 18.0247 3.04997L15.5347 4.05497C15.0197 3.65995 14.4547 3.32498 13.8447 3.06998L13.4697 0.42C13.4247 0.185015 13.2197 0 12.9697 0H8.96971C8.71972 0 8.51469 0.185015 8.47471 0.42L8.09971 3.06998C7.48972 3.32498 6.92469 3.65498 6.40972 4.05497L3.91972 3.04997C3.69472 2.96498 3.43471 3.04997 3.30974 3.26498L1.30968 6.72998C1.18466 6.94499 1.23969 7.21499 1.42968 7.36996L3.53966 9.02498C3.49968 9.34499 3.46968 9.66998 3.46968 9.99998C3.46968 10.33 3.49968 10.655 3.53966 10.975L1.42968 12.63C1.23969 12.78 1.18466 13.05 1.30968 13.27L3.30969 16.735C3.43471 16.95 3.69468 17.04 3.91968 16.95L6.40968 15.945C6.92469 16.34 7.48968 16.675 8.09966 16.93L8.47466 19.58C8.51464 19.8149 8.71967 20 8.96966 20H12.9696C13.2196 20 13.4247 19.8149 13.4646 19.58L13.8396 16.93C14.4496 16.675 15.0147 16.345 15.5296 15.945L18.0196 16.95C18.2446 17.035 18.5046 16.95 18.6296 16.735L20.6296 13.27C20.7547 13.055 20.6996 12.785 20.5097 12.63ZM10.9697 13.5C9.03467 13.5 7.46966 11.935 7.46966 9.99998C7.46966 8.06498 9.03467 6.50001 10.9697 6.50001C12.9047 6.50001 14.4697 8.06502 14.4697 10C14.4697 11.935 12.9047 13.5 10.9697 13.5Z" fill="white"/>
</g>
<defs>
<clipPath id="clip0_101_849">
<rect width="20" height="20" fill="white" transform="translate(0.972168)"/>
</clipPath>
</defs>
</svg>
