<svg width="25" height="19" viewBox="0 0 25 19" fill="none" xmlns="http://www.w3.org/2000/svg">
<path d="M24.5368 9.01828C24.5435 9.16003 24.557 9.26803 24.557 9.38279C24.557 11.6913 24.557 13.9931 24.557 16.3017C24.557 17.9149 23.4905 18.9949 21.8772 18.9949C17.2061 19.0017 12.5418 19.0017 7.87072 18.9949C6.29795 18.9949 5.22468 17.9082 5.22468 16.3354C5.21793 15.0394 5.22468 13.7501 5.22468 12.4541C5.22468 12.4338 5.23818 12.4136 5.23143 12.4406C5.93344 12.3663 6.6152 12.3393 7.27671 12.2043C9.07224 11.8263 10.429 10.7936 11.4213 9.26128C11.5293 9.09253 11.6373 9.01828 11.8465 9.01828C14.2833 9.02503 16.7201 9.02503 19.1637 9.02503C20.8242 9.02503 22.4915 9.01828 24.152 9.01828C24.2667 9.01828 24.3883 9.01828 24.5368 9.01828Z" fill="white"/>
<path fill-rule="evenodd" clip-rule="evenodd" d="M0.000118154 5.94022C0.0203685 9.10602 2.67991 11.7048 5.85922 11.6778C9.14652 11.6508 11.7048 9.05202 11.6778 5.77146C11.6508 2.57191 9.01827 -0.0201325 5.81196 0.000117852C2.56516 0.0203682 -0.0201322 2.66641 0.000118154 5.94022ZM6.39529 1.93013L5.69876 1.75513L5.41337 2.90788C5.40321 2.90554 5.39306 2.9032 5.38292 2.90087C5.24183 2.86838 5.10299 2.8364 4.96836 2.80231L4.96917 2.79866L4.00821 2.55706L3.82279 3.30661C3.82279 3.30661 4.33995 3.42599 4.32907 3.4333C4.61123 3.50436 4.66202 3.69235 4.65355 3.84178L4.32866 5.15532C4.34801 5.1602 4.373 5.16751 4.40122 5.17847L4.32746 5.1602L3.87197 7.00038C3.8373 7.08646 3.74983 7.21599 3.55232 7.16686C3.55958 7.17701 3.04604 7.03977 3.04604 7.03977L2.7002 7.84292L3.60714 8.07071C3.70453 8.09535 3.80084 8.12067 3.89615 8.14573C3.96574 8.16403 4.03479 8.18218 4.10334 8.19983L3.81513 9.36598L4.51126 9.54058L4.79665 8.38742C4.9869 8.43899 5.17152 8.4869 5.3521 8.53238L5.06752 9.68067L5.76406 9.85526L6.05226 8.69155C7.24056 8.91812 8.1338 8.82676 8.50988 7.74425C8.813 6.87288 8.49497 6.3698 7.86978 6.04212C8.32527 5.93655 8.66789 5.63486 8.75939 5.01159C8.88596 4.16052 8.24223 3.70291 7.3627 3.39757L7.64808 2.24441L6.95155 2.06981L6.67342 3.19252C6.49423 3.14719 6.31041 3.10498 6.12687 3.06284L6.11514 3.06015L6.39529 1.93013ZM5.02278 7.54245L5.40571 5.99746C5.45334 6.00945 5.51156 6.02263 5.57751 6.03755C6.1658 6.17068 7.36981 6.44314 7.1672 7.26025C6.97011 8.05997 5.72759 7.72936 5.15885 7.57803C5.1076 7.56439 5.06183 7.55221 5.02278 7.54245ZM5.58105 5.29013L5.92771 3.88929C5.96752 3.89928 6.0163 3.91015 6.07162 3.92248C6.5623 4.03182 7.56687 4.25568 7.38285 4.999C7.20295 5.72574 6.16957 5.44782 5.69565 5.32036C5.65245 5.30874 5.61389 5.29837 5.58105 5.29013Z" fill="white"/>
<path d="M24.53 7.49274C20.4125 7.49274 16.3219 7.49274 12.2516 7.49274C12.2988 6.66923 12.3528 5.84571 12.4068 5.00195C12.4473 4.9952 12.5351 4.9817 12.6228 4.9817C15.7481 4.9817 18.8734 4.97495 21.9988 4.9817C23.3555 4.9817 24.4288 5.97397 24.5503 7.31724C24.5503 7.36449 24.5368 7.40499 24.53 7.49274Z" fill="white"/>
</svg>
