<svg width="93" height="20" viewBox="0 0 93 20" fill="none" xmlns="http://www.w3.org/2000/svg">
<path d="M38.326 16.112C40.916 16.112 42.12 14.824 42.12 13.326C42.12 9.728 36.184 11.226 36.184 8.832C36.184 7.978 36.898 7.278 38.564 7.278C39.432 7.278 40.398 7.53 41.252 8.076L41.714 6.956C40.902 6.396 39.712 6.088 38.564 6.088C35.988 6.088 34.812 7.376 34.812 8.888C34.812 12.528 40.748 11.016 40.748 13.41C40.748 14.264 40.02 14.922 38.326 14.922C37.066 14.922 35.82 14.446 35.092 13.788L34.574 14.88C35.358 15.608 36.828 16.112 38.326 16.112ZM50.6753 12.332C50.6753 10.05 49.1493 8.51 47.0073 8.51C44.8653 8.51 43.2833 10.092 43.2833 12.29C43.2833 14.502 44.8793 16.084 47.2733 16.084C48.5053 16.084 49.5273 15.664 50.1993 14.88L49.4573 14.012C48.9113 14.614 48.1833 14.908 47.3153 14.908C45.8453 14.908 44.7953 14.04 44.6273 12.738H50.6473C50.6613 12.612 50.6753 12.444 50.6753 12.332ZM47.0073 9.644C48.3093 9.644 49.2473 10.526 49.3873 11.772H44.6273C44.7673 10.512 45.7193 9.644 47.0073 9.644ZM56.2936 14.6C56.0136 14.824 55.6356 14.95 55.2436 14.95C54.5016 14.95 54.0816 14.502 54.0816 13.704V9.686H56.2096V8.58H54.0816V6.956H52.7376V8.58H51.4776V9.686H52.7376V13.76C52.7376 15.258 53.5916 16.084 55.0896 16.084C55.6916 16.084 56.3076 15.916 56.7136 15.566L56.2936 14.6ZM61.9127 14.6C61.6327 14.824 61.2547 14.95 60.8627 14.95C60.1207 14.95 59.7007 14.502 59.7007 13.704V9.686H61.8287V8.58H59.7007V6.956H58.3567V8.58H57.0967V9.686H58.3567V13.76C58.3567 15.258 59.2107 16.084 60.7087 16.084C61.3107 16.084 61.9267 15.916 62.3327 15.566L61.9127 14.6ZM64.6296 7.152C65.1616 7.152 65.5396 6.76 65.5396 6.256C65.5396 5.78 65.1476 5.402 64.6296 5.402C64.1116 5.402 63.7196 5.794 63.7196 6.284C63.7196 6.774 64.1116 7.152 64.6296 7.152ZM63.9576 16H65.3016V8.58H63.9576V16ZM71.8298 8.51C70.6538 8.51 69.7018 8.944 69.1558 9.7V8.58H67.8678V16H69.2118V12.178C69.2118 10.568 70.1358 9.714 71.5638 9.714C72.8378 9.714 73.5658 10.428 73.5658 11.884V16H74.9098V11.73C74.9098 9.546 73.6358 8.51 71.8298 8.51ZM83.2621 8.58V9.728C82.6321 8.916 81.6241 8.51 80.5181 8.51C78.3761 8.51 76.7521 9.952 76.7521 12.094C76.7521 14.236 78.3761 15.692 80.5181 15.692C81.5821 15.692 82.5481 15.314 83.1921 14.544V15.132C83.1921 16.812 82.3941 17.624 80.6441 17.624C79.5521 17.624 78.4741 17.246 77.7881 16.658L77.1441 17.694C77.9561 18.422 79.3281 18.8 80.6861 18.8C83.2061 18.8 84.5361 17.61 84.5361 14.992V8.58H83.2621ZM80.6721 14.516C79.1741 14.516 78.1101 13.522 78.1101 12.094C78.1101 10.652 79.1741 9.686 80.6721 9.686C82.1561 9.686 83.2201 10.652 83.2201 12.094C83.2201 13.522 82.1561 14.516 80.6721 14.516ZM89.2321 16.084C91.2061 16.084 92.4381 15.23 92.4381 13.886C92.4381 11.002 87.7341 12.43 87.7341 10.68C87.7341 10.092 88.3081 9.658 89.4841 9.658C90.2121 9.658 90.9541 9.812 91.6261 10.246L92.2001 9.182C91.5561 8.762 90.4641 8.51 89.4981 8.51C87.5941 8.51 86.4041 9.406 86.4041 10.736C86.4041 13.69 91.0941 12.248 91.0941 13.914C91.0941 14.544 90.5761 14.922 89.3301 14.922C88.3641 14.922 87.3561 14.6 86.7261 14.152L86.1661 15.216C86.7821 15.706 88.0001 16.084 89.2321 16.084Z" fill="#85898F"/>
<g clip-path="url(#clip0_101_793)">
<path d="M19.5375 12.63L17.4275 10.975C17.4675 10.655 17.4975 10.33 17.4975 9.99998C17.4975 9.66998 17.4675 9.34499 17.4275 9.02498L19.5425 7.36996C19.7325 7.21996 19.7875 6.94996 19.6625 6.72998L17.6625 3.26498C17.5375 3.04997 17.2775 2.95997 17.0525 3.04997L14.5625 4.05497C14.0475 3.65995 13.4825 3.32498 12.8725 3.06998L12.4975 0.42C12.4525 0.185015 12.2475 0 11.9975 0H7.99754C7.74755 0 7.54252 0.185015 7.50254 0.42L7.12754 3.06998C6.51755 3.32498 5.95252 3.65498 5.43755 4.05497L2.94756 3.04997C2.72256 2.96498 2.46254 3.04997 2.33757 3.26498L0.337511 6.72998C0.212496 6.94499 0.267527 7.21499 0.457511 7.36996L2.56749 9.02498C2.52751 9.34499 2.49751 9.66998 2.49751 9.99998C2.49751 10.33 2.52751 10.655 2.56749 10.975L0.457511 12.63C0.267527 12.78 0.212496 13.05 0.337511 13.27L2.33753 16.735C2.46254 16.95 2.72251 17.04 2.94751 16.95L5.43751 15.945C5.95252 16.34 6.51751 16.675 7.12749 16.93L7.50249 19.58C7.54248 19.8149 7.74751 20 7.99749 20H11.9975C12.2475 20 12.4525 19.8149 12.4925 19.58L12.8675 16.93C13.4775 16.675 14.0425 16.345 14.5575 15.945L17.0475 16.95C17.2725 17.035 17.5325 16.95 17.6574 16.735L19.6575 13.27C19.7825 13.055 19.7275 12.785 19.5375 12.63ZM9.99751 13.5C8.06251 13.5 6.49749 11.935 6.49749 9.99998C6.49749 8.06498 8.06251 6.50001 9.99751 6.50001C11.9325 6.50001 13.4975 8.06502 13.4975 10C13.4975 11.935 11.9325 13.5 9.99751 13.5Z" fill="#85898F"/>
</g>
<defs>
<clipPath id="clip0_101_793">
<rect width="20" height="20" fill="white"/>
</clipPath>
</defs>
</svg>
