<svg xmlns="http://www.w3.org/2000/svg" width="24" height="23" viewBox="0 0 24 23" fill="none">
    <path d="M12.0998 0.15155C12.6845 0.364245 12.8762 0.872833 12.9963 1.40505C13.0833 1.79127 13.1005 2.19367 13.1381 2.58993C13.1481 2.69546 13.1724 2.73852 13.2866 2.74402C15.039 2.82884 16.411 3.61131 17.4146 5.03575C18.1861 6.13062 18.6017 7.35629 18.7092 8.69429C18.8776 10.7908 19.0919 12.8825 19.5435 14.9411C19.7542 15.901 20.011 16.8479 20.493 17.7149C20.8213 18.3053 21.2496 18.8026 21.9239 18.9985C22.2415 19.0907 22.5788 19.1199 22.9094 19.1613C23.2415 19.2031 23.4128 19.4595 23.2972 19.7699C23.2334 19.9418 23.1156 20.0224 22.9077 20.0241C22.5354 20.027 22.1632 20.025 21.7909 20.025C15.4667 20.0247 9.14283 20.0241 2.81866 20.0237C2.23043 20.0237 1.6422 20.0266 1.0543 20.0244C0.694305 20.0231 0.49974 19.6877 0.66614 19.3678C0.743513 19.2193 0.875273 19.1794 1.0271 19.1639C1.27897 19.1386 1.5331 19.1225 1.78141 19.0771C2.54478 18.9373 3.05757 18.4594 3.43246 17.8113C3.87177 17.0522 4.11943 16.2211 4.3237 15.3759C4.63935 14.0689 4.83424 12.741 4.97992 11.4062C5.0874 10.4201 5.14794 9.42852 5.27678 8.44533C5.48948 6.8205 6.10198 5.36725 7.27585 4.19242C8.16645 3.30117 9.26132 2.84147 10.5135 2.74888C10.7968 2.72784 10.7919 2.7314 10.8059 2.44004C10.8282 1.96965 10.8975 1.50703 11.0674 1.06384C11.2222 0.659491 11.442 0.312123 11.8732 0.15155C11.9486 0.15155 12.0244 0.15155 12.0998 0.15155Z" fill="#FFF831" />
    <path d="M11.7109 22.9969C11.5876 22.9643 11.4636 22.9325 11.3406 22.8989C10.1696 22.5774 9.43343 21.3595 9.69403 20.1869C9.72252 20.059 9.77464 20.0264 9.89896 20.0267C11.28 20.0309 12.6607 20.0319 14.0418 20.0257C14.1823 20.0251 14.2237 20.0759 14.2509 20.2018C14.5232 21.4531 13.6744 22.7036 12.3801 22.9526C12.3286 22.9623 12.2794 22.9821 12.2289 22.9969C12.0563 22.9969 11.8835 22.9969 11.7109 22.9969Z" fill="#FFF831" />
  </svg>