<svg xmlns="http://www.w3.org/2000/svg" width="20" height="27" viewBox="0 0 20 27" fill="none">
    <path d="M19.3337 16.7066C19.1167 16.5057 18.8224 16.3929 18.5159 16.3929C18.513 16.3929 18.5102 16.3929 18.5074 16.3929C18.3396 16.3941 14.3689 16.4482 11.8046 18.8224C9.24039 21.1965 9.18193 24.8731 9.18069 25.0285C9.17845 25.3153 9.30056 25.5909 9.51951 25.7936C9.73645 25.9946 10.0308 26.1073 10.3373 26.1073C10.3401 26.1073 10.3429 26.1073 10.3458 26.1073C10.5136 26.1061 14.4844 26.0521 17.0486 23.6779C19.6128 21.3036 19.6713 17.6271 19.6725 17.4718C19.6748 17.185 19.5527 16.9094 19.3337 16.7066Z" fill="#FFF831" />
    <path d="M0.338904 16.7066C0.555923 16.5057 0.850173 16.3929 1.1567 16.3929C1.15956 16.3929 1.16242 16.3929 1.1652 16.3929C1.33302 16.3941 5.30369 16.4482 7.86799 18.8224C10.4322 21.1965 10.4907 24.8731 10.4919 25.0285C10.4942 25.3153 10.3721 25.5909 10.1531 25.7936C9.93616 25.9946 9.64183 26.1073 9.3353 26.1073C9.33252 26.1073 9.32966 26.1073 9.32681 26.1073C9.15898 26.1061 5.18823 26.0521 2.62401 23.6779C0.0597906 21.3036 0.00132561 17.6271 9.05991e-05 17.4718C-0.00214958 17.185 0.119878 16.9094 0.338904 16.7066Z" fill="#FFF831" />
    <path d="M17.4429 8.5C17.4429 12.6304 14.0491 16 9.83629 16C5.62353 16 2.22974 12.6304 2.22974 8.5C2.22974 4.36957 5.62353 1 9.83629 1C14.0491 1 17.4429 4.36957 17.4429 8.5Z" stroke="#FFF831" color="#000000" strokeWidth="2" />
    <ellipse cx="9.83623" cy="8.49997" rx="3.68852" ry="3.64286" fill="#FFF831" />
</svg>