<svg xmlns="http://www.w3.org/2000/svg" width="84" height="84" viewBox="0 0 84 84" fill="none">
    <path fill-rule="evenodd" clip-rule="evenodd" d="M76.125 19.25C76.125 18.7668 75.7332 18.375 75.25 18.375H8.75C8.26675 18.375 7.875 18.7667 7.875 19.25V22.3125C7.875 23.7622 6.69974 24.9375 5.25 24.9375C3.80025 24.9375 2.625 23.7622 2.625 22.3125V19.25C2.625 15.8673 5.36726 13.125 8.75 13.125H75.25C78.6327 13.125 81.375 15.8673 81.375 19.25V50.5312C81.375 51.981 80.1997 53.1562 78.75 53.1562C77.3003 53.1562 76.125 51.981 76.125 50.5312V19.25ZM78.75 56.4375C80.1997 56.4375 81.375 57.6128 81.375 59.0625V64.75C81.375 68.1327 78.6327 70.875 75.25 70.875H8.75C5.36725 70.875 2.625 68.1327 2.625 64.75V42C2.625 40.5502 3.80025 39.375 5.25 39.375C6.69974 39.375 7.875 40.5502 7.875 42V64.75C7.875 65.2332 8.26675 65.625 8.75 65.625H75.25C75.7332 65.625 76.125 65.2332 76.125 64.75V59.0625C76.125 57.6128 77.3003 56.4375 78.75 56.4375ZM5.25 28C6.69974 28 7.875 29.1752 7.875 30.625V33.25C7.875 34.6997 6.69974 35.875 5.25 35.875C3.80025 35.875 2.625 34.6997 2.625 33.25V30.625C2.625 29.1752 3.80025 28 5.25 28Z" fill="#FFF831" />
    <path fill-rule="evenodd" clip-rule="evenodd" d="M19.7073 53.0703C17.7978 54.4182 17.5 55.6256 17.5 56H38.5C38.5 55.6256 38.2022 54.4182 36.2927 53.0703C34.4767 51.7884 31.6214 50.75 28 50.75C24.3786 50.75 21.5233 51.7884 19.7073 53.0703ZM28 45.5C18.8125 45.5 12.25 50.75 12.25 56V57.75C12.25 59.683 13.817 61.25 15.75 61.25H40.25C42.183 61.25 43.75 59.683 43.75 57.75V56C43.75 50.75 37.1875 45.5 28 45.5Z" fill="#FFF831" />
    <path fill-rule="evenodd" clip-rule="evenodd" d="M46.375 29.75C46.375 28.3003 47.5503 27.125 49 27.125H58.5359C59.9856 27.125 61.1609 28.3003 61.1609 29.75C61.1609 31.1997 59.9856 32.375 58.5359 32.375H49C47.5503 32.375 46.375 31.1997 46.375 29.75ZM63.3079 29.75C63.3079 28.3003 64.4831 27.125 65.9329 27.125H68.25C69.6997 27.125 70.875 28.3003 70.875 29.75C70.875 31.1997 69.6997 32.375 68.25 32.375H65.9329C64.4831 32.375 63.3079 31.1997 63.3079 29.75Z" fill="#FFF831" />
    <path fill-rule="evenodd" clip-rule="evenodd" d="M46.375 38.5C46.375 37.0503 47.5503 35.875 49 35.875H64.75C66.1997 35.875 67.375 37.0503 67.375 38.5C67.375 39.9497 66.1997 41.125 64.75 41.125H49C47.5503 41.125 46.375 39.9497 46.375 38.5Z" fill="#FFF831" />
    <path fill-rule="evenodd" clip-rule="evenodd" d="M46.375 47.25C46.375 45.8003 47.5503 44.625 49 44.625H59.5C60.9497 44.625 62.125 45.8003 62.125 47.25C62.125 48.6997 60.9497 49.875 59.5 49.875H49C47.5503 49.875 46.375 48.6997 46.375 47.25Z" fill="#FFF831" />
    <path fill-rule="evenodd" clip-rule="evenodd" d="M28 38.5C29.933 38.5 31.5 36.933 31.5 35C31.5 33.067 29.933 31.5 28 31.5C26.067 31.5 24.5 33.067 24.5 35C24.5 36.933 26.067 38.5 28 38.5ZM28 43.75C32.8325 43.75 36.75 39.8325 36.75 35C36.75 30.1675 32.8325 26.25 28 26.25C23.1675 26.25 19.25 30.1675 19.25 35C19.25 39.8325 23.1675 43.75 28 43.75Z" fill="#FFF831" />
  </svg>